<?xml version="1.0" encoding="UTF-8"?>
<svg width="33px" height="30px" viewBox="0 0 33 30" version="1.1" xmlns="http://www.w3.org/2000/svg" xmlns:xlink="http://www.w3.org/1999/xlink">
    <!-- Generator: Sketch 49 (51002) - http://www.bohemiancoding.com/sketch -->
    <title>fresh</title>
    <desc>Created with Sketch.</desc>
    <defs></defs>
    <g id="Desktop" stroke="none" stroke-width="1" fill="#FFF" fill-rule="evenodd">
        <g id="shared-list-desktop-1" transform="translate(-312.000000, -328.000000)"  fill-rule="nonzero">
            <g id="categories" transform="translate(264.000000, 328.000000)">
                <g id="fresh">
                    <g id="noun_Vegetable_162057" transform="translate(48.000000, 0.000000)">
                        <path d="M4.04851282,13.2696621 C3.96702564,11.9872171 4.1145641,10.6891059 4.63148718,9.56587356 C4.88851282,9.00188925 5.27261538,8.52753034 5.63302564,8.04770647 C6.00671795,7.57261891 6.41558974,7.11647655 6.92892308,6.72992141 L6.90953846,6.66907814 C6.57102564,6.69603863 6.24974359,6.82719777 5.95933333,6.99588301 C5.66605128,7.16420391 5.40148718,7.37915917 5.16097436,7.61888894 C4.67420513,8.10053446 4.38451282,8.74248561 4.16230769,9.3720495 C3.71502564,10.6464792 3.71179487,12.0152706 3.98605128,13.277313 L4.04851282,13.2696621 Z M6.46512821,14.3367874 C6.16753846,13.1425106 6.07779487,11.8651662 6.33841026,10.6140537 C6.46871795,9.99432677 6.64174359,9.35128263 7.02117949,8.82154542 C7.39379487,8.29800184 7.87625641,7.83056522 8.48471795,7.60978066 L8.51882051,7.66443031 C8.13974359,8.15518411 7.82851282,8.64775956 7.55928205,9.16037321 C7.30046154,9.67298687 7.00430769,10.1764922 6.82912821,10.7433912 C6.47446154,11.8735458 6.42169231,13.1068061 6.52794872,14.3265862 L6.46512821,14.3367874 Z M22.6071282,7.91181103 C22.5654872,9.9440491 24.0631282,10.7809173 25.0969744,11.1390546 C25.8967692,10.5411875 26.3006154,8.98768034 25.9010769,7.91181103 C26.3261026,8.62881435 26.6538462,7.91181103 26.6538462,7.91181103 C26.6538462,7.91181103 27.4008718,10.7452129 26.124,11.5157728 C27.1503077,11.8928554 29.3709231,12.0298438 31.1284615,11.5157728 C30.5393846,13.2069971 27.3603077,13.6492949 25.9007179,12.812791 C24.8851795,15.0880379 23.3555897,15.9201698 21.1181026,14.2089073 C23.1208205,15.2468862 23.7098974,13.5297944 24.331641,12.0957877 C22.9524615,11.4975563 21.9426667,8.7483149 22.6071282,7.91181103 Z M5.66641026,5.80634244 C6.78676923,5.80634244 7.77933333,5.61725467 8.21405128,4.545393 C8.64876923,3.47389566 9.06051282,0 9.06051282,0 L9.48123077,0 C9.48123077,0 9.89225641,3.473167 10.3273333,4.545393 C10.7624103,5.617619 11.7549744,5.80634244 12.8753333,5.80634244 C14.2426667,5.80634244 16.8524103,6.87856844 16.8524103,9.90579435 C16.8524103,12.9337489 14.8001538,15.9041392 9.27123077,15.9041392 C3.74266667,15.9041392 1.68933333,12.9337489 1.68933333,9.90579435 C1.68969231,6.87856844 4.2994359,5.80634244 5.66641026,5.80634244 Z M0,29.8270467 C1.44738462,28.0228798 1.44738462,18.6588455 10.2085128,22.6322389 C11.3805641,32.2826373 3.43897436,29.5876812 0,29.8270467 Z M10.6916923,22.1465858 C7.4774359,19.096407 11.1170769,17.9363773 12.194359,15.9037749 C14.6127692,21.0455776 11.2452308,20.9297204 10.8679487,22.0044967 C15.1950256,20.2600801 15.1131795,24.4739319 16.0102564,26.0522136 C13.117641,25.4918726 10.3926667,26.8289672 10.6916923,22.1465858 Z M23.8064615,27.0362715 C19.1125128,27.0362715 15.3066667,23.2100678 15.3066667,18.489796 C15.3066667,14.3652052 18.2132821,10.9244637 22.0790769,10.1207496 C22.3709231,10.9404943 22.890359,11.8170745 23.5724103,12.3406181 C23.1520513,13.3020875 22.8027692,13.8813737 22.2215897,13.9185355 C21.6953333,13.9524183 20.9565641,13.7866477 20.4421538,13.6551242 C20.6866154,15.1193703 22.5094872,15.7263457 23.2974359,15.7263457 C24.4590769,15.7263457 25.4290256,15.0104354 26.1861026,13.5961026 C26.6427179,13.7498503 27.1775897,13.8314604 27.7436923,13.8314604 C28.6626667,13.8314604 29.6609744,13.6139548 30.4403077,13.1534405 C31.6055385,14.6165936 32.3076923,16.4695808 32.3076923,18.4905246 C32.3066154,23.2100678 28.5011282,27.0362715 23.8064615,27.0362715 Z M12.0166667,23.383125 C11.7991282,23.0978539 11.5955897,22.8052962 11.4178974,22.4631894 L11.3762564,22.4701117 C11.3270769,22.8770693 11.4735385,23.2774691 11.6666667,23.6228548 C11.8626667,23.9751628 12.1738974,24.2393028 12.4829744,24.4768466 C12.7949231,24.7147547 13.1391795,24.9034781 13.4977949,25.0437455 C13.8592821,25.1767263 14.2369231,25.2561505 14.6098974,25.2885759 L14.6177949,25.2466779 C13.8915897,25.0677914 13.2249744,24.710747 12.7001538,24.2137996 C12.4352308,23.9635043 12.2381538,23.6600166 12.0166667,23.383125 Z M11.5704615,20.6521002 C11.7560513,20.3016138 11.8350256,19.9077721 11.927641,19.5277749 C12.1107179,18.7648659 12.2108718,17.9873836 12.2151795,17.209537 L12.1731795,17.2066224 C12.1153846,17.5869839 12.0306667,17.9633378 11.9326667,18.3342267 C11.8404103,18.7058442 11.732,19.0723612 11.6038462,19.4304985 C11.4789231,19.7897288 11.3033846,20.1260063 11.1834872,20.482322 C11.0621538,20.8408236 10.9311282,21.190217 10.8263077,21.5785938 L10.8614872,21.6026397 C11.1648205,21.3370424 11.3898974,21.0036796 11.5704615,20.6521002 Z M11.7129744,10.7433912 C12.0665641,11.8735458 12.1207692,13.1068061 12.0137949,14.3265862 L12.0762564,14.3367874 C12.3745641,13.1425106 12.4646667,11.8651662 12.2029744,10.6136894 C12.0726667,9.99396244 11.900359,9.35164696 11.5212821,8.82118109 C11.1486667,8.29800184 10.6662051,7.83020089 10.0573846,7.60941633 L10.024,7.66406598 C10.402359,8.15481977 10.7139487,8.64775956 10.9831795,9.16000888 C11.242359,9.6733512 11.5381538,10.1764922 11.7129744,10.7433912 Z M12.9094359,8.04770647 C13.2691282,8.52753034 13.6528718,9.00116058 13.9106154,9.56587356 C14.4275385,10.6891059 14.5750769,11.9872171 14.4932308,13.2696621 L14.5560513,13.2780417 C14.8303077,12.0156349 14.8274359,10.6464792 14.3794359,9.37277816 C14.1568718,8.74321427 13.8678974,8.10126312 13.3811282,7.6196176 C13.1406154,7.38025216 12.8756923,7.16456824 12.5824103,6.99661167 C12.292359,6.8275621 11.9710769,6.69676729 11.6325641,6.66944247 L11.6131795,6.73028574 C12.1261538,7.11647655 12.5353846,7.57261891 12.9094359,8.04770647 Z" id="fresh"></path>
                    </g>
                </g>
            </g>
        </g>
    </g>
</svg>
